# xmcd
#
# Track frame offsets:
#	150
#	14202
#	28046
#	42374
#	54782
#	68180
#	81436
#	94608
#	107381
#	119295
#	131464
#	144289
#	157099
#	170058
#	183475
#	196075
#	209237
#	223058
#
# Disc length: 3135 seconds
#
# Revision: 0
# Processed by: cddbd v1.5.2PL0 Copyright (c) Steve Scherf et al.
# Submitted via: audiograbber 1.83.01
#
DISCID=080c3d12
DTITLE=Big Bill Broonzy - Whiskey And Good Time Blues
DYEAR=1995
DGENRE=Blues
TTITLE0=She Caught The Train
TTITLE1=The Dozen
TTITLE2=Don't Tear My Clothes
TTITLE3=Ash Hauler
TTITLE4=Out With The Wrong Woman
TTITLE5=Down In The Alley
TTITLE6=Stuff They Call Money
TTITLE7=Good Boy
TTITLE8=Unemployment Stomp
TTITLE9=Rider Rider Blues
TTITLE10=Whiskey And Good Time Blues
TTITLE11=Make My Getaway
TTITLE12=Looking For My Baby
TTITLE13=My Mellow Man
TTITLE14=Knockin' Myself Out
TTITLE15=Key To The Highway
TTITLE16=Wee Wee Blues
TTITLE17=Conversation With The Blues
EXTD=
EXTT0=
EXTT1=
EXTT2=
EXTT3=
EXTT4=
EXTT5=
EXTT6=
EXTT7=
EXTT8=
EXTT9=
EXTT10=
EXTT11=
EXTT12=
EXTT13=
EXTT14=
EXTT15=
EXTT16=
EXTT17=
PLAYORDER=
